<mxfile host="app.diagrams.net" modified="2024-10-30T08:36:31.245Z" agent="Mozilla/5.0 (Windows NT 10.0; Win64; x64) AppleWebKit/537.36 (KHTML, like Gecko) Chrome/130.0.0.0 Safari/537.36" version="24.2.1" etag="oqUtwTsdPwrY-kxEdMYo" type="github">
  <diagram name="ページ1" id="YbGiqza3UZPCYqdOFcic">
    <mxGraphModel>
      <root>
        <mxCell id="0" />
        <mxCell id="1" parent="0" />
      </root>
    </mxGraphModel>
  </diagram>
</mxfile>
